<svg width="13" height="16" viewBox="0 0 13 16" fill="none" xmlns="http://www.w3.org/2000/svg">
<path d="M5.34406 1.04823C4.65698 1.36887 4.23329 1.80402 3.9241 2.4911C3.62637 3.15527 3.61492 4.27749 3.9012 5.11344C4.11877 5.73181 4.11877 5.74326 3.8783 6.23566C3.63782 6.72807 3.63782 6.72807 3.0309 6.72807C2.45834 6.72807 2.42398 6.71662 2.5385 6.49904C2.6072 6.38453 2.88203 6.0868 3.15687 5.85777C3.59201 5.49133 3.64927 5.41117 3.53476 5.22795C3.35154 4.93022 3.29428 4.95312 2.74462 5.43407C0.442912 7.51821 0.305496 11.3887 2.45834 13.7019C4.26764 15.6372 7.56561 16.0151 9.82151 14.5264C11.5163 13.4271 12.3866 11.7781 12.3866 9.7054C12.3866 8.02206 11.7339 6.47614 10.5773 5.43407C10.0276 4.94167 9.97038 4.93022 9.78716 5.22795C9.66119 5.42262 9.69555 5.49133 10.0391 5.74326C10.2452 5.90358 10.5315 6.18986 10.6689 6.38453L10.9094 6.72807H10.3025C9.6841 6.72807 9.6841 6.72807 9.44362 6.23566C9.20314 5.74326 9.20314 5.73181 9.42072 5.11344C9.86732 3.80799 9.59249 2.33078 8.76799 1.55209C7.90915 0.750501 6.43193 0.532927 5.34406 1.04823ZM7.72593 1.52919C9.707 2.5369 9.53523 4.90732 7.30223 7.25483L6.66096 7.93045L5.97388 7.19757C4.38215 5.50278 3.84394 3.8996 4.46231 2.66286C5.05778 1.43758 6.53499 0.933721 7.72593 1.52919ZM4.69134 6.59065C4.71424 6.67081 4.63408 6.72807 4.49667 6.72807C4.33635 6.72807 4.27909 6.67081 4.33635 6.5563C4.40506 6.36163 4.62263 6.38453 4.69134 6.59065ZM8.99702 6.5563C9.04282 6.67081 8.98557 6.72807 8.8367 6.72807C8.60768 6.72807 8.53897 6.60211 8.68783 6.46469C8.80235 6.33873 8.91686 6.37308 8.99702 6.5563ZM3.40879 7.49531C3.37444 7.67853 3.30573 8.19383 3.27138 8.64043L3.19122 9.47638H2.30947H1.42772L1.53078 8.82365C1.58804 8.45721 1.72546 7.94191 1.85142 7.67853L2.06899 7.18612H2.77897H3.4775L3.40879 7.49531ZM5.77921 7.8503C6.36322 8.44576 6.43193 8.56027 6.43193 8.99542V9.47638H5.05778C3.68362 9.47638 3.68362 9.47638 3.72943 9.213C3.76378 9.07558 3.80959 8.68624 3.85539 8.35415C3.96991 7.32354 4.06152 7.18612 4.63408 7.18612C5.08068 7.18612 5.18374 7.24338 5.77921 7.8503ZM9.36346 7.75868C9.43217 8.04497 9.51233 8.54882 9.54668 8.86946L9.60394 9.47638H8.25269H6.88998V8.99542C6.88998 8.56027 6.95869 8.44576 7.55416 7.83884C8.17253 7.20902 8.22978 7.17467 8.72219 7.20902C9.22605 7.24338 9.2375 7.25483 9.36346 7.75868ZM11.4705 7.71288C11.5965 7.99916 11.7453 8.51447 11.7911 8.85801L11.8942 9.47638H11.0124H10.1307L10.0505 8.64043C10.0162 8.19383 9.94748 7.67853 9.91312 7.49531L9.84441 7.18612H10.5429H11.2529L11.4705 7.71288ZM3.27138 10.7589C3.30573 11.217 3.37444 11.7323 3.40879 11.904L3.4775 12.2247H2.77897C2.1377 12.2247 2.06899 12.2018 1.92013 11.904C1.75981 11.5949 1.58804 10.9879 1.46208 10.3009L1.40482 9.93443H2.29802H3.19122L3.27138 10.7589ZM6.43193 10.2207C6.43193 10.4268 6.48919 10.507 6.66096 10.507C6.83273 10.507 6.88998 10.4268 6.88998 10.2207V9.93443H8.25269H9.62684L9.56958 10.3581C9.53523 10.5986 9.45507 11.1139 9.38636 11.5033L9.27185 12.2247H8.08092C6.97014 12.2247 6.88998 12.2132 6.88998 11.9957C6.88998 11.8468 6.80982 11.7666 6.66096 11.7666C6.51209 11.7666 6.43193 11.8468 6.43193 11.9957C6.43193 12.2132 6.35177 12.2247 5.241 12.2247H4.05007L3.93555 11.5033C3.86684 11.1139 3.78669 10.5986 3.75233 10.3581L3.69508 9.93443H5.06923H6.43193V10.2207ZM11.8598 10.3009C11.7339 10.9879 11.5621 11.5949 11.4018 11.904C11.2529 12.2018 11.1842 12.2247 10.5429 12.2247H9.84441L9.91312 11.904C9.94748 11.7323 10.0162 11.217 10.0505 10.7589L10.1307 9.93443H11.0239H11.9285L11.8598 10.3009ZM3.86684 13.1637C3.98136 13.4271 4.19893 13.8279 4.3478 14.034C4.49667 14.2516 4.58828 14.4462 4.56537 14.4691C4.43941 14.6066 2.74462 13.3011 2.52705 12.9003C2.42398 12.7056 2.46979 12.6827 3.0309 12.6827C3.64927 12.6827 3.64927 12.6827 3.86684 13.1637ZM6.43193 13.7706C6.43193 15.0073 6.34032 15.099 5.61889 14.5722C5.13794 14.2058 4.89746 13.9195 4.53102 13.2209L4.25619 12.6827H5.34406H6.43193V13.7706ZM8.7909 13.2209C8.42446 13.9195 8.18398 14.2058 7.70302 14.5722C6.98159 15.099 6.88998 15.0073 6.88998 13.7706V12.6827H7.97786H9.06573L8.7909 13.2209ZM10.7949 12.9003C10.5773 13.3011 8.88251 14.6066 8.75654 14.4691C8.73364 14.4462 8.82525 14.2516 8.97412 14.034C9.12298 13.8279 9.34056 13.4271 9.45507 13.1637C9.67265 12.6827 9.67265 12.6827 10.291 12.6827C10.8521 12.6827 10.8979 12.7056 10.7949 12.9003Z" fill="#FBFDFF"/>
<path d="M5.65332 1.87283C5.00059 2.20492 4.6685 2.75458 4.6227 3.59052C4.57689 4.20889 4.61125 4.39211 4.86318 4.80436C5.64186 6.14416 7.66874 6.15561 8.44743 4.82726C8.98564 3.92261 8.72226 2.60571 7.89777 2.0217C7.40536 1.66671 6.21443 1.58655 5.65332 1.87283ZM7.3023 2.36523C8.14969 2.75458 8.03518 2.83474 6.66103 2.83474C5.75638 2.83474 5.41284 2.80038 5.47009 2.70877C5.5617 2.54845 6.42055 2.14766 6.66103 2.14766C6.75264 2.14766 7.05037 2.25072 7.3023 2.36523ZM8.20695 3.52181C8.2413 3.64778 8.2413 3.8539 8.20695 3.97987C8.13824 4.19744 8.03518 4.20889 6.66103 4.20889C5.28687 4.20889 5.18381 4.19744 5.1151 3.97987C5.08075 3.8539 5.08075 3.64778 5.1151 3.52181C5.18381 3.30424 5.28687 3.29279 6.66103 3.29279C8.03518 3.29279 8.13824 3.30424 8.20695 3.52181ZM7.63439 4.89597C7.3481 5.2166 6.75264 5.35402 6.27168 5.22806C6.06556 5.1708 5.80218 5.02193 5.68767 4.89597C5.48155 4.66694 5.493 4.66694 6.66103 4.66694C7.82906 4.66694 7.84051 4.66694 7.63439 4.89597Z" fill="#FBFDFF"/>
<path d="M5.40112 11.0796C5.40112 11.2513 5.48128 11.3086 5.68741 11.3086C5.89353 11.3086 5.97369 11.2513 5.97369 11.0796C5.97369 10.9078 5.89353 10.8505 5.68741 10.8505C5.48128 10.8505 5.40112 10.9078 5.40112 11.0796Z" fill="#FBFDFF"/>
<path d="M6.37465 10.9653C6.32885 11.0454 6.3403 11.1485 6.409 11.2172C6.56932 11.3775 6.94722 11.2859 6.94722 11.0798C6.94722 10.8736 6.48916 10.782 6.37465 10.9653Z" fill="#FBFDFF"/>
<path d="M7.3479 11.0796C7.3479 11.2513 7.42806 11.3086 7.63418 11.3086C7.84031 11.3086 7.92046 11.2513 7.92046 11.0796C7.92046 10.9078 7.84031 10.8505 7.63418 10.8505C7.42806 10.8505 7.3479 10.9078 7.3479 11.0796Z" fill="#FBFDFF"/>
</svg>
