<svg width="15" height="16" viewBox="0 0 15 16" fill="none" xmlns="http://www.w3.org/2000/svg">
<g opacity="0.7">
<path d="M7.03096 1.58932C6.18643 1.73246 5.50222 2.07886 4.8953 2.6686C4.73784 2.8232 4.53458 3.04936 4.44584 3.17532C3.54405 4.42351 3.4553 6.00093 4.19391 7.51536C4.41721 7.96769 4.5947 8.21103 5.29323 9.01834L5.87438 9.6911L4.86381 9.70542L3.85323 9.71973L3.78452 9.7913C3.73013 9.8457 3.55264 10.3639 3.02588 11.9871C2.64512 13.1551 2.33594 14.1371 2.33594 14.1714C2.33594 14.2688 2.4161 14.3947 2.50771 14.4434C2.58214 14.4806 3.1862 14.4863 7.68082 14.4863C12.2499 14.4863 12.7795 14.4806 12.8368 14.4405C12.9141 14.3861 12.9856 14.2544 12.9856 14.1657C12.9856 14.1313 12.6764 13.1494 12.2986 11.9814C11.6888 10.1091 11.6 9.85428 11.5227 9.78558L11.4397 9.70542H10.6868C9.96249 9.70542 9.931 9.70828 9.86802 9.76554C9.74778 9.88005 9.71915 10.0461 9.79645 10.195C9.87088 10.341 9.97394 10.3639 10.5494 10.3639H11.0647L11.4254 11.4718C11.6258 12.0844 11.8777 12.8545 11.9865 13.1866C12.0953 13.5187 12.184 13.7993 12.184 13.8107C12.184 13.8193 10.1486 13.8279 7.65792 13.8279H3.13466L3.1547 13.762C3.18906 13.6504 3.64711 12.2419 3.95629 11.2857L4.25689 10.3639H5.35621H6.45554L6.85633 10.8276L7.25713 11.2943L6.9279 11.3086C6.59868 11.3229 6.59581 11.3229 6.51279 11.4174C6.45554 11.4832 6.42977 11.5405 6.42977 11.6121C6.42977 11.7323 6.49562 11.8668 6.57005 11.9098C6.64735 11.9499 8.67422 11.9499 8.75152 11.9098C8.82595 11.8668 8.8918 11.7323 8.8918 11.6121C8.8918 11.5405 8.86603 11.4832 8.80877 11.4174C8.72575 11.3229 8.72289 11.3229 8.39367 11.3086L8.06444 11.2943L9.3384 9.81993C10.0398 9.00975 10.6896 8.23679 10.7841 8.1051C11.3796 7.25771 11.7031 6.10113 11.6115 5.15353C11.5943 4.96745 11.5571 4.71552 11.5256 4.59242C11.1506 3.02646 9.87661 1.84411 8.2906 1.58932C7.96424 1.53779 7.33156 1.53779 7.03096 1.58932ZM8.2219 2.24777C9.04925 2.39377 9.81362 2.86614 10.3375 3.56467C10.5322 3.82232 10.7698 4.32331 10.8557 4.65254C10.9473 5.0018 10.9788 5.59441 10.9273 5.95799C10.8328 6.58494 10.5322 7.32641 10.1658 7.81023C9.97394 8.06788 7.68941 10.7074 7.66078 10.7074C7.63216 10.7074 5.37912 8.10224 5.16154 7.81882C4.68918 7.19472 4.36854 6.24999 4.36854 5.47131C4.36854 4.56665 4.70922 3.77938 5.37625 3.13238C5.85434 2.6686 6.43836 2.36801 7.08822 2.24777C7.38023 2.19624 7.91558 2.19624 8.2219 2.24777Z" fill="#FBFDFF"/>
<path d="M7.23726 3.9362C6.77921 4.06503 6.41563 4.36563 6.21237 4.79219C6.08355 5.05557 6.04919 5.25596 6.06637 5.58233C6.10072 6.27799 6.56736 6.85628 7.23154 7.02805C7.46629 7.09103 7.87567 7.08817 8.10184 7.02805C8.65436 6.88205 9.11527 6.39537 9.23837 5.83425C9.28991 5.59091 9.25841 5.1529 9.17253 4.92101C9.0208 4.50877 8.66009 4.14805 8.24784 3.9906C7.99591 3.89326 7.48347 3.8675 7.23726 3.9362ZM7.97587 4.60038C8.32513 4.72062 8.57134 5.04698 8.59997 5.41628C8.63432 5.88578 8.33945 6.27799 7.86422 6.40109C7.4577 6.50415 7.03973 6.30948 6.82788 5.92014C6.73627 5.75123 6.73054 5.7226 6.73054 5.48213C6.73054 5.25883 6.742 5.20443 6.80784 5.08133C7.04259 4.63473 7.51496 4.44006 7.97587 4.60038Z" fill="#FBFDFF"/>
</g>
</svg>
