<svg width="15" height="16" viewBox="0 0 15 16" fill="none" xmlns="http://www.w3.org/2000/svg">
<g opacity="0.7">
<path d="M4.33923 3.1764C3.85828 3.30522 3.46893 3.62586 3.25136 4.06673C3.07959 4.41314 3.07959 4.40741 3.07959 6.96677C3.07959 9.55476 3.07959 9.53186 3.26567 9.90116C3.45176 10.2705 3.74663 10.5396 4.15315 10.7056L4.35354 10.7886L8.33 10.7972C12.7187 10.8058 12.4467 10.8144 12.8389 10.6226C13.0995 10.4966 13.4001 10.1932 13.5346 9.9212C13.735 9.52327 13.7321 9.58053 13.7236 6.88089C13.715 4.46467 13.715 4.4618 13.652 4.27286C13.569 4.03238 13.3943 3.76327 13.1968 3.57147C13.0193 3.40256 12.6557 3.21075 12.4181 3.16208C12.3122 3.13918 11.064 3.13059 8.38153 3.13345C5.04921 3.13345 4.47378 3.13918 4.33923 3.1764ZM12.1748 3.6459C12.4353 3.68025 12.6872 3.80335 12.8762 3.9923C13.0537 4.1698 13.1911 4.45321 13.1968 4.65361L13.1997 4.79675L10.8836 5.79588C9.60968 6.34554 8.54471 6.795 8.52181 6.795C8.49605 6.795 7.37668 6.37417 6.03688 5.85886L3.5949 4.91985V4.7853C3.5949 4.49329 3.78384 4.10109 4.01859 3.91214C4.19036 3.77473 4.41653 3.67166 4.60834 3.64876C4.86026 3.61441 11.9228 3.61441 12.1748 3.6459ZM13.2082 7.38761L13.1997 9.41448L13.131 9.56335C13.0937 9.64637 13.0565 9.71508 13.0451 9.71222C13.0365 9.71222 12.6099 9.21409 12.0975 8.60717C11.585 8.00025 10.9896 7.29313 10.7749 7.03834L10.3855 6.57456L11.7768 5.97051C12.5441 5.63842 13.1796 5.36645 13.1939 5.36645C13.2054 5.36359 13.2111 6.27397 13.2082 7.38761ZM5.16086 6.07357C5.96818 6.38276 6.62949 6.64614 6.62949 6.66045C6.62949 6.6719 5.98822 7.37902 5.20667 8.23214L3.78384 9.78379L3.6951 9.60057L3.60921 9.41448L3.60062 7.442C3.59203 5.56113 3.5949 5.47238 3.64357 5.48956C3.67219 5.50101 4.35641 5.76439 5.16086 6.07357ZM11.2816 8.44112C12.0459 9.34578 12.67 10.0987 12.67 10.113C12.67 10.1474 12.421 10.2533 12.2492 10.2876C12.1576 10.3077 10.8436 10.3163 8.31855 10.3105L4.52531 10.302L4.35354 10.2304C4.25907 10.1903 4.18178 10.1502 4.18178 10.1388C4.18178 10.1273 4.8574 9.38299 5.68189 8.48407C6.8213 7.2416 7.1906 6.85226 7.22782 6.86657C7.25358 6.87802 7.52269 6.98109 7.82328 7.09846C8.55617 7.38188 8.51036 7.38188 9.26328 7.05552C9.58678 6.91524 9.85875 6.80073 9.8702 6.79786C9.88165 6.795 10.5143 7.53647 11.2816 8.44112Z" fill="#FBFDFF"/>
<path d="M2.37254 4.36221C2.08339 4.42233 1.81429 4.63704 1.68832 4.91473L1.6053 5.09223L1.59671 8.02662C1.59099 10.0649 1.59957 11.0183 1.61961 11.1471C1.71695 11.7168 2.175 12.2149 2.73898 12.3638C2.97659 12.4296 11.7626 12.4268 11.9744 12.3638C12.4325 12.2292 12.7789 11.8456 12.8705 11.3847C12.9163 11.1614 12.8905 11.024 12.7932 10.9467C12.6214 10.8121 12.3838 10.9324 12.3838 11.1585C12.3838 11.4162 12.1748 11.7225 11.92 11.837L11.7683 11.9057H7.35957H2.95083L2.79337 11.8428C2.57007 11.7511 2.41262 11.628 2.29524 11.4506C2.10057 11.1557 2.10629 11.2759 2.10629 8.10105C2.10629 5.264 2.10629 5.23823 2.16641 5.11799C2.1979 5.04929 2.26661 4.96913 2.31528 4.93764C2.3983 4.88611 2.44411 4.87179 2.64164 4.83171C2.7447 4.81167 2.822 4.70861 2.822 4.59124C2.822 4.39943 2.64164 4.30495 2.37254 4.36221Z" fill="#FBFDFF"/>
</g>
</svg>
