<svg width="15" height="16" viewBox="0 0 15 16" fill="none" xmlns="http://www.w3.org/2000/svg">
<g opacity="0.7">
<path d="M9.25534 3.03739C8.98857 3.09501 8.73886 3.21666 8.50837 3.39807L8.38672 3.49411L8.51264 3.68192C8.58093 3.78436 8.65776 3.90815 8.68337 3.95937L8.73033 4.05114L8.84771 3.94443C9.45596 3.40447 10.2798 3.61149 10.6789 4.40542C10.8219 4.69354 10.8987 5.0841 10.8773 5.4213C10.8026 6.54817 9.92549 7.24605 9.10595 6.82988C9.04832 6.80214 8.99924 6.7808 8.99497 6.78506C8.9907 6.78933 8.96936 6.85549 8.94588 6.93446C8.92027 7.01129 8.87332 7.14361 8.83704 7.22685L8.77301 7.37838L8.87759 7.43173C9.04406 7.51497 9.37486 7.5918 9.57761 7.5918C10.5828 7.5918 11.3917 6.72958 11.5069 5.53442C11.5603 4.96672 11.4109 4.33926 11.1078 3.87827C10.9819 3.68619 10.7066 3.40661 10.5316 3.29136C10.1517 3.04166 9.67365 2.94775 9.25534 3.03739Z" fill="#FBFDFF"/>
<path d="M5.98996 3.11133C5.75093 3.13694 5.5866 3.18602 5.34543 3.30341C4.4704 3.72811 3.93258 4.73973 3.97527 5.873C3.99447 6.36173 4.07344 6.67546 4.289 7.11084C4.43412 7.40109 4.54297 7.55475 4.76066 7.77885C5.18963 8.21636 5.70611 8.42551 6.28875 8.39563C7.40708 8.34228 8.30131 7.33066 8.40589 6.00105C8.53608 4.34277 7.3836 2.96407 5.98996 3.11133ZM6.53632 3.82842C6.91834 3.9394 7.28116 4.26593 7.49031 4.68637C7.66318 5.03212 7.73361 5.34371 7.73361 5.76629C7.73148 6.64558 7.29397 7.38402 6.61955 7.65079C6.4915 7.69988 6.44668 7.70628 6.19911 7.70842C5.94514 7.70842 5.90886 7.70415 5.768 7.64866C4.91005 7.31359 4.45973 6.2102 4.73078 5.11535C4.86523 4.57326 5.23872 4.09093 5.68264 3.88604C5.93447 3.77293 6.26954 3.74946 6.53632 3.82842Z" fill="#FBFDFF"/>
<path d="M11.5347 7.33667C11.5006 7.38362 11.3917 7.49887 11.2957 7.59491C11.1975 7.68882 11.1185 7.76992 11.1185 7.77205C11.1185 7.77632 11.1783 7.82114 11.253 7.87449C11.4301 8.00254 11.7246 8.2928 11.8591 8.47634C11.9765 8.63214 12.1515 8.95227 12.2283 9.14648C12.3393 9.43247 12.4396 10.0258 12.4055 10.2051C12.3478 10.5038 11.8676 10.7813 11.1185 10.9478L10.8944 10.999V11.3063C10.8923 11.4749 10.8859 11.6392 10.8752 11.6691L10.8582 11.7246L11.0268 11.6969C11.4365 11.6243 11.9381 11.4706 12.2155 11.3319C12.4417 11.2188 12.5698 11.1313 12.7277 10.9819C13.0628 10.6703 13.1631 10.3523 13.1055 9.79955C13.0585 9.35563 12.954 8.99709 12.7491 8.58305C12.5271 8.12846 12.1899 7.70589 11.81 7.40283C11.7097 7.32386 11.6222 7.2577 11.6137 7.25557C11.6051 7.25344 11.571 7.28972 11.5347 7.33667Z" fill="#FBFDFF"/>
<path d="M3.81099 8.16115C3.29451 8.54744 2.89968 9.02551 2.61157 9.60815C2.38961 10.0606 2.26796 10.4874 2.21674 10.9997C2.15911 11.5631 2.25729 11.8918 2.58169 12.2226C3.15152 12.8052 4.37869 13.1595 5.95374 13.1979C7.05713 13.2235 7.97911 13.0997 8.81145 12.8095C9.50294 12.5683 9.97673 12.1735 10.1304 11.7103C10.1902 11.5311 10.1837 10.9527 10.1176 10.6219C9.92338 9.64016 9.38342 8.7694 8.59803 8.17822L8.38461 8.01816L8.14131 8.26786C8.00685 8.40445 7.90014 8.5197 7.90228 8.5197C8.86054 9.10661 9.48373 10.1716 9.49867 11.2536C9.5008 11.4436 9.49653 11.4777 9.44745 11.5738C9.23829 11.9878 8.39315 12.3271 7.23427 12.468C6.83517 12.5171 5.95374 12.5342 5.5333 12.5021C4.70096 12.4381 4.02868 12.2887 3.53141 12.0518C3.18353 11.8875 3.00426 11.7296 2.91036 11.5076C2.88048 11.4372 2.87621 11.3795 2.88901 11.1704C2.94023 10.1694 3.46952 9.22399 4.29119 8.65415C4.39577 8.58159 4.48114 8.51543 4.48114 8.50689C4.48114 8.49836 4.42565 8.44287 4.35949 8.38524C4.29119 8.32549 4.18875 8.21877 4.12899 8.14835C4.07137 8.07792 4.01801 8.02029 4.01161 8.02029C4.00521 8.01816 3.91557 8.08219 3.81099 8.16115Z" fill="#FBFDFF"/>
</g>
</svg>
