<svg width="21" height="21" viewBox="0 0 21 21" fill="none" xmlns="http://www.w3.org/2000/svg">
<path d="M9.16536 13.6016L15.0404 7.72656L13.8737 6.5599L9.16536 11.2682L6.79036 8.89323L5.6237 10.0599L9.16536 13.6016ZM4.4987 17.6016C4.04036 17.6016 3.64786 17.4385 3.3212 17.1124C2.99509 16.7857 2.83203 16.3932 2.83203 15.9349V4.26823C2.83203 3.8099 2.99509 3.4174 3.3212 3.09073C3.64786 2.76462 4.04036 2.60156 4.4987 2.60156H16.1654C16.6237 2.60156 17.0162 2.76462 17.3429 3.09073C17.669 3.4174 17.832 3.8099 17.832 4.26823V15.9349C17.832 16.3932 17.669 16.7857 17.3429 17.1124C17.0162 17.4385 16.6237 17.6016 16.1654 17.6016H4.4987Z" fill="#0389FF"/>
</svg>
