<svg width="26" height="26" viewBox="0 0 26 26" fill="none" xmlns="http://www.w3.org/2000/svg">
<path d="M13.8791 15.5504L20.9094 8.52013L19.1674 6.71591L13.8791 12.0042L11.2039 9.39114L9.4619 11.1332L13.8791 15.5504ZM8.03096 20.4654C7.3466 20.4654 6.76053 20.2215 6.27277 19.7337C5.78501 19.246 5.54154 18.6603 5.54237 17.9768V3.04523C5.54237 2.36087 5.78625 1.77481 6.27402 1.28704C6.76178 0.79928 7.34743 0.555813 8.03096 0.556643H22.9625C23.6469 0.556643 24.2329 0.800525 24.7207 1.28829C25.2085 1.77605 25.4519 2.3617 25.4511 3.04523V17.9768C25.4511 18.6611 25.2072 19.2472 24.7195 19.735C24.2317 20.2227 23.646 20.4662 22.9625 20.4654H8.03096ZM3.05378 25.4426C2.36942 25.4426 1.78335 25.1987 1.29559 24.7109C0.807825 24.2231 0.564358 23.6375 0.565188 22.954V5.53382H3.05378V22.954H20.4739V25.4426H3.05378Z" fill="#0389FF"/>
</svg>
