<svg width="62" height="41" viewBox="0 0 62 41" fill="none" xmlns="http://www.w3.org/2000/svg">
<path d="M28.0474 4.60987C26.4479 4.83056 23.8452 5.85125 22.2999 6.87194C19.5074 8.69263 16.9048 12.4168 16.3897 15.2306C16.1999 16.1685 16.1185 16.2788 15.3594 16.2788C12.4314 16.2788 9.28654 18.2099 7.98521 20.8306C7.28032 22.2375 7.17188 22.734 7.17188 24.665C7.17188 26.3478 7.33454 27.203 7.76832 28.1685C8.55454 29.9064 10.127 31.6168 11.7537 32.4995C13.1363 33.2444 13.1905 33.2444 19.5888 33.3271C25.1465 33.4099 26.0141 33.3547 26.0141 32.9961C26.0141 32.665 25.0923 32.5823 19.7243 32.4995C13.787 32.4168 13.3261 32.3892 12.2688 31.8099C10.7777 30.9823 9.39499 29.4926 8.66299 27.9478C6.35854 22.9271 9.77454 17.3547 15.2239 17.2719L16.7692 17.2444L17.0945 15.865C17.8265 12.6926 20.4834 8.9409 23.1945 7.25814C24.523 6.45814 27.0985 5.63056 28.915 5.40987C33.0088 4.91332 38.0243 7.09263 40.5457 10.4581L41.5217 11.7271L43.9888 11.7547C47.5132 11.8099 49.167 12.4995 51.5257 14.8719C53.8301 17.2168 54.5621 19.0099 54.5621 22.2099C54.5621 25.2719 53.803 27.2306 51.7968 29.2444C49.1128 31.9478 47.2421 32.5271 41.2777 32.5547C37.6719 32.5547 37.1297 32.6099 37.1297 32.9961C37.1297 33.3823 37.6719 33.4099 42.091 33.3271C46.3474 33.2168 47.215 33.134 48.5163 32.6099C56.4328 29.4099 57.951 18.6788 51.2274 13.2719C49.2212 11.6719 47.215 10.9547 44.4497 10.8995L42.1452 10.8444L40.4101 9.02366C37.1568 5.57539 32.6834 3.97539 28.0474 4.60987Z" fill="#0389FF"/>
<path d="M28.2372 21.7678C25.2821 25.023 24.4417 26.2092 25.1737 26.2092C25.2821 26.2092 26.6648 24.8299 28.2101 23.1196L31.0297 20.0575L31.1652 28.4989C31.2466 33.7954 31.4092 36.9954 31.5719 37.0506C31.7346 37.0782 31.8701 34.0989 31.9243 28.6092C31.9515 23.9471 32.0328 20.1402 32.1141 20.1402C32.1683 20.1402 32.819 20.8023 33.5239 21.5747C36.8857 25.3265 37.8888 26.292 38.187 26.0989C38.5123 25.8782 37.5363 24.6368 33.6866 20.4437L31.5448 18.1265L28.2372 21.7678Z" fill="#0389FF"/>
</svg>
